<?xml version="1.0" standalone="no"?>
<!DOCTYPE svg PUBLIC "-//W3C//DTD SVG 20010904//EN"
 "http://www.w3.org/TR/2001/REC-SVG-20010904/DTD/svg10.dtd">
<svg version="1.0" xmlns="http://www.w3.org/2000/svg"
 width="512.000000pt" height="512.000000pt" viewBox="0 0 512.000000 512.000000"
 preserveAspectRatio="xMidYMid meet">
<metadata>
Created by potrace 1.11, written by Peter Selinger 2001-2013
</metadata>
<g transform="translate(0.000000,512.000000) scale(0.100000,-0.100000)"
fill="#000000" stroke="none">
<path d="M3250 4083 c-36 -8 -69 -15 -75 -16 -5 -2 -16 -6 -22 -10 -7 -5 -13
-6 -13 -3 0 11 -150 -63 -207 -102 -68 -46 -171 -153 -207 -214 -27 -47 -62
-132 -72 -175 -3 -16 -8 -71 -9 -123 -3 -84 0 -115 19 -207 11 -52 83 -168
140 -226 139 -143 303 -218 751 -343 200 -55 274 -116 240 -197 -14 -35 -38
-52 -95 -67 -46 -13 -165 -17 -210 -7 -113 23 -169 49 -226 105 -40 40 -74
116 -74 168 l0 23 -279 0 c-254 1 -280 -1 -294 -17 -15 -16 -17 -66 -20 -403
-4 -383 -5 -412 -21 -438 -7 -12 -12 -11 -23 4 -19 26 -16 44 3 20 10 -12 14
-14 12 -5 -3 8 1 27 8 42 9 18 10 29 4 33 -6 4 -10 3 -9 -2 1 -4 1 -15 0 -23
-1 -13 -2 -13 -12 0 -8 12 -9 9 -4 -10 6 -25 6 -25 -11 -5 -13 16 -15 17 -11
3 3 -10 2 -20 -2 -23 -5 -2 -11 4 -14 15 -3 11 -11 20 -19 20 -9 0 -10 -2 -1
-8 16 -10 20 -44 5 -49 -7 -3 -10 1 -6 11 4 10 0 18 -10 22 -9 3 -13 11 -9 18
4 6 -5 3 -19 -6 -26 -17 -28 -17 -37 0 -6 9 -11 12 -11 6 0 -5 5 -15 12 -22 9
-9 9 -12 0 -12 -6 0 -17 9 -24 19 -10 16 -14 17 -25 5 -16 -16 -37 -19 -28 -4
3 6 2 10 -3 10 -5 0 -9 -13 -9 -30 0 -16 4 -30 9 -30 5 0 7 -4 4 -8 -3 -5 1
-9 9 -9 21 0 19 13 -2 22 -16 6 -16 8 6 26 27 22 51 11 52 -25 l0 -21 9 21 c5
12 14 25 21 30 8 5 10 3 7 -7 -3 -8 -9 -21 -12 -30 -4 -10 -2 -16 6 -16 9 0
13 12 12 34 0 25 3 32 14 28 7 -3 16 -5 18 -5 2 0 4 -5 4 -11 0 -5 -4 -8 -9
-5 -5 3 -12 -1 -15 -10 -3 -8 -2 -12 4 -9 14 9 52 -14 44 -27 -4 -7 -2 -8 5
-4 8 6 9 12 2 20 -6 7 -8 16 -4 19 9 10 25 9 19 -1 -2 -4 4 -13 14 -20 15 -9
22 -9 32 2 11 11 17 11 38 -1 22 -14 22 -13 -2 7 -31 24 -36 40 -13 40 8 0 15
5 15 11 0 5 -6 7 -12 3 -8 -4 -10 -3 -5 2 12 12 507 13 514 0 3 -5 -2 -15 -11
-22 -9 -6 -13 -15 -8 -18 6 -3 12 0 15 7 6 16 42 16 58 0 8 -8 8 -13 0 -17 -6
-4 -11 -3 -11 3 0 5 -9 9 -20 8 -11 -1 -20 -5 -20 -10 0 -4 8 -7 18 -5 9 2 16
-3 14 -9 -3 -19 3 -16 40 21 l34 34 -23 11 c-14 7 -21 16 -17 23 4 7 3 8 -5 4
-8 -6 -9 -12 -2 -20 11 -13 5 -26 -11 -26 -5 0 -6 6 -2 12 5 9 2 8 -9 -1 -10
-8 -21 -10 -25 -6 -4 4 -1 10 6 12 6 3 12 9 12 15 0 6 -7 5 -17 -3 -15 -11
-15 -10 1 8 10 13 21 21 25 19 3 -2 6 12 6 32 1 52 12 132 19 140 4 3 23 -10
44 -30 20 -19 55 -48 77 -64 22 -16 42 -31 45 -34 7 -7 69 -41 75 -41 16 1 95
-40 95 -48 0 -6 -17 -1 -37 10 -23 13 -32 15 -25 6 10 -12 8 -18 -13 -31 -29
-19 -49 -12 -42 15 3 11 1 16 -4 13 -6 -3 -8 -19 -5 -36 3 -22 1 -28 -9 -24
-14 5 -15 -18 0 -31 4 -4 6 -3 2 2 -7 13 60 58 68 45 3 -5 13 -6 22 -3 11 4
14 3 9 -5 -4 -7 -2 -12 4 -12 7 0 9 7 6 16 -3 9 -6 18 -6 21 0 3 -7 0 -15 -7
-11 -9 -15 -9 -15 -1 0 21 32 25 46 6 7 -10 11 -22 8 -26 -3 -5 0 -9 5 -9 6 0
11 5 11 10 0 6 5 10 11 10 5 0 7 -5 4 -10 -3 -5 -1 -10 5 -10 7 0 10 6 7 13
-2 6 -12 11 -21 10 -12 0 -15 4 -12 14 3 8 6 17 6 19 0 2 5 4 11 4 5 0 7 -5 4
-10 -4 -7 2 -9 19 -4 16 4 26 2 26 -5 0 -6 -7 -8 -17 -4 -11 4 -14 3 -9 -6 4
-6 13 -11 19 -10 24 3 38 -1 33 -10 -3 -5 1 -12 9 -15 12 -4 13 -2 5 13 -5 11
-15 21 -22 24 -7 2 -1 4 15 3 17 -1 25 -6 23 -13 -3 -7 -1 -15 5 -18 5 -4 7
-10 5 -14 -3 -4 0 -13 6 -21 8 -12 9 -12 4 3 -3 9 0 17 6 17 7 0 4 6 -7 13
-24 18 -10 26 40 22 22 -2 47 -4 55 -4 11 -1 11 -4 2 -13 -7 -7 -12 -16 -12
-22 0 -5 9 1 19 13 11 13 24 20 30 17 5 -3 12 0 14 6 4 10 6 10 6 0 1 -7 5
-10 11 -7 5 3 34 7 63 9 30 2 59 6 65 10 7 4 12 3 12 -2 0 -15 28 -23 36 -10
4 7 3 8 -4 4 -7 -4 -12 -2 -12 3 0 6 8 12 18 12 38 3 58 7 87 18 25 10 31 10
42 -5 7 -10 10 -20 7 -23 -3 -3 -12 3 -20 13 -8 11 -14 14 -14 7 0 -6 -8 -11
-17 -9 -13 2 -17 -5 -19 -30 -1 -29 0 -31 11 -15 8 10 9 20 4 21 -5 2 -9 7 -9
11 0 13 44 5 48 -8 3 -9 7 -9 18 0 11 9 18 9 29 -1 8 -7 15 -8 15 -3 0 5 9 19
20 31 12 12 16 22 11 22 -6 0 -15 -9 -21 -20 -15 -28 -34 -26 -20 3 11 21 11
22 -5 2 -14 -17 -17 -18 -25 -5 -14 22 -12 26 12 27 11 1 24 7 28 12 3 6 16
12 29 14 12 2 26 9 30 16 5 7 12 12 16 10 4 -1 14 3 24 9 9 7 37 26 63 42 76
50 173 161 211 242 42 89 59 157 61 252 6 224 -105 397 -339 528 -58 33 -228
109 -249 112 -10 1 -54 17 -101 36 -11 5 -65 23 -120 40 -112 36 -111 36 -217
82 -93 41 -146 85 -163 134 -25 74 12 131 104 159 53 16 145 16 171 0 3 -2 19
-6 33 -9 81 -14 185 -97 220 -176 22 -48 25 -56 31 -110 2 -19 5 -37 5 -40 1
-3 122 -5 270 -5 208 1 273 4 285 14 14 12 16 58 16 392 0 354 -1 379 -17 380
-84 4 -475 1 -495 -4 -30 -8 -35 -19 -43 -102 -3 -33 -8 -70 -11 -83 -4 -22
-5 -22 -31 10 -55 68 -172 158 -205 158 -7 0 -18 4 -24 9 -8 7 -67 30 -99 37
-129 31 -299 38 -395 17z m-50 -2218 c-7 -9 -15 -13 -17 -11 -7 7 7 26 19 26
6 0 6 -6 -2 -15z"/>
<path d="M549 4033 l-29 -12 0 -198 0 -199 88 1 87 0 1 -652 c0 -587 -1 -653
-15 -654 -9 0 -41 -1 -71 -2 -92 -3 -89 6 -92 -220 -2 -125 1 -198 7 -200 6
-2 34 -3 63 -2 44 2 51 0 41 -12 -7 -8 -21 -19 -32 -24 -17 -9 -18 -8 -12 12
l7 22 -23 -22 c-24 -22 -40 -23 -47 -3 -2 7 2 10 11 6 8 -3 17 -2 20 3 3 4 -6
9 -19 9 -25 2 -33 -19 -13 -32 8 -5 4 -13 -11 -24 -17 -13 -20 -19 -10 -25 8
-5 11 -4 7 1 -3 5 10 19 28 31 19 13 37 18 40 13 3 -5 13 -6 22 -3 11 4 14 3
9 -5 -4 -7 -2 -12 4 -12 7 0 10 6 7 14 -4 10 0 14 14 13 12 -1 19 -9 20 -22 0
-19 1 -19 9 1 5 12 14 25 21 30 8 5 10 3 7 -7 -3 -8 -9 -21 -12 -30 -4 -9 -2
-16 6 -16 8 0 13 14 14 38 0 29 -3 36 -12 28 -7 -5 -14 -6 -16 -2 -3 4 -3 3
-2 -4 2 -6 -6 -11 -17 -10 -22 1 -24 10 -6 24 7 6 244 9 602 8 325 -1 594 1
600 4 21 11 55 10 48 -2 -5 -9 -3 -9 8 -1 15 12 139 39 176 38 12 0 20 4 17 8
-3 4 2 8 11 8 9 0 53 18 98 39 214 103 318 283 318 553 0 216 -98 375 -290
470 -47 23 -78 44 -70 46 43 14 137 93 181 152 52 71 71 151 72 300 0 130 -1
138 -32 211 -56 132 -163 222 -319 270 -152 47 -222 51 -902 53 -434 1 -591
-2 -612 -11z m1067 -446 c68 -43 97 -106 95 -211 -1 -99 -24 -149 -79 -171
-40 -17 -270 -27 -279 -12 -3 6 -7 348 -4 413 1 8 36 11 114 9 102 -2 116 -4
153 -28z m35 -783 c121 -36 192 -207 143 -344 -23 -64 -51 -95 -109 -121 -40
-18 -67 -21 -186 -21 -77 0 -142 2 -145 5 -5 4 -8 313 -5 465 l1 33 128 -2
c72 -1 147 -7 173 -15z"/>
<path d="M2354 1916 c1 -8 5 -18 8 -22 4 -3 5 1 4 10 -1 8 -5 18 -8 22 -4 3
-5 -1 -4 -10z"/>
<path d="M2486 1922 c-3 -5 1 -9 9 -9 8 0 12 4 9 9 -3 4 -7 8 -9 8 -2 0 -6 -4
-9 -8z"/>
<path d="M4540 1915 c-7 -8 -9 -15 -4 -15 4 0 3 -5 -3 -11 -6 -6 -9 -19 -5
-28 5 -14 4 -14 -11 -2 -14 11 -15 17 -5 30 8 10 4 8 -10 -4 -20 -16 -25 -17
-34 -5 -8 12 -9 11 -4 -4 5 -13 2 -17 -8 -13 -10 4 -13 1 -10 -8 5 -12 10 -11
32 3 24 16 26 16 20 0 -5 -12 -3 -15 7 -12 10 4 13 0 10 -13 -2 -11 1 -26 7
-34 8 -12 9 -12 5 1 -2 8 6 23 19 33 13 10 24 13 24 7 0 -5 5 -10 12 -10 6 0
8 3 5 7 -4 3 -2 12 3 18 7 9 7 14 -2 18 -19 7 -33 3 -33 -8 -1 -16 -15 -35
-27 -35 -6 0 -6 6 2 15 7 9 10 18 7 22 -4 3 -2 12 4 20 6 7 8 13 4 13 -4 0 -2
7 5 15 7 8 10 15 7 15 -2 0 -10 -7 -17 -15z m40 -56 c0 -6 -4 -7 -10 -4 -5 3
-10 11 -10 16 0 6 5 7 10 4 6 -3 10 -11 10 -16z"/>
<path d="M2433 1905 c0 -8 4 -12 9 -9 5 3 6 10 3 15 -9 13 -12 11 -12 -6z"/>
<path d="M3371 1913 c3 -20 -2 -23 -23 -13 -21 10 -21 10 -6 -3 12 -10 14 -17
7 -24 -6 -6 -8 -16 -5 -22 8 -12 36 -3 36 11 0 6 -6 5 -15 -2 -22 -19 -18 0 6
26 14 14 17 24 10 29 -7 3 -11 3 -10 -2z"/>
<path d="M4476 1907 c3 -10 9 -15 12 -12 3 3 0 11 -7 18 -10 9 -11 8 -5 -6z"/>
<path d="M1995 1900 c3 -5 8 -10 11 -10 2 0 4 5 4 10 0 6 -5 10 -11 10 -5 0
-7 -4 -4 -10z"/>
<path d="M2115 1900 c3 -5 8 -10 11 -10 2 0 4 5 4 10 0 6 -5 10 -11 10 -5 0
-7 -4 -4 -10z"/>
<path d="M2235 1900 c3 -5 8 -10 11 -10 2 0 4 5 4 10 0 6 -5 10 -11 10 -5 0
-7 -4 -4 -10z"/>
<path d="M3210 1906 c0 -3 12 -12 27 -19 l27 -15 -30 -15 c-17 -9 -37 -24 -45
-33 -10 -13 -4 -12 19 5 33 23 49 20 74 -14 5 -6 8 -6 8 1 0 6 -10 19 -22 27
-13 9 -17 16 -10 16 6 1 21 -8 32 -19 11 -11 20 -16 20 -11 0 6 -5 13 -10 16
-6 4 -8 15 -5 25 6 20 -10 36 -20 20 -4 -6 -17 -4 -36 5 -16 9 -29 13 -29 11z
m72 -38 c-7 -7 -12 -8 -12 -2 0 14 12 26 19 19 2 -3 -1 -11 -7 -17z"/>
<path d="M3314 1877 c3 -39 12 -57 29 -57 9 0 9 2 0 8 -7 5 -15 23 -17 40 -5
45 -15 52 -12 9z"/>
<path d="M4270 1890 c9 -17 4 -30 -11 -30 -5 0 -7 6 -5 13 1 6 1 9 -1 5 -2 -4
-12 -4 -21 -1 -11 3 -9 -1 5 -11 14 -10 20 -23 17 -34 -3 -9 2 -5 10 10 9 15
22 26 29 24 6 -1 9 -1 4 1 -12 8 3 22 17 17 7 -3 16 2 20 12 5 14 4 15 -9 4
-12 -10 -15 -10 -15 1 0 8 -6 6 -16 -7 -11 -13 -14 -14 -11 -3 3 9 -1 16 -8
16 -10 0 -11 -5 -5 -17z"/>
<path d="M4362 1893 c6 -7 8 -17 4 -20 -4 -4 -12 -1 -17 7 -9 12 -10 11 -5 -4
4 -12 -1 -27 -14 -41 -16 -17 -17 -22 -5 -22 8 0 13 2 10 5 -5 5 20 32 30 32
3 0 3 -4 0 -10 -3 -5 -2 -10 3 -10 5 0 8 17 8 38 0 24 -5 39 -13 39 -10 0 -10
-4 -1 -14z"/>
<path d="M4592 1901 c-11 -6 -10 -10 4 -15 9 -4 22 -2 28 4 8 8 6 9 -8 4 -13
-5 -17 -4 -12 4 8 14 6 15 -12 3z"/>
<path d="M1930 1894 c0 -6 5 -15 12 -22 9 -9 9 -12 0 -12 -6 0 -16 8 -21 18
-6 9 -11 12 -11 6 0 -6 -11 -11 -25 -11 -13 0 -22 3 -19 8 3 5 0 9 -6 9 -7 0
-10 -6 -7 -12 2 -7 19 -13 37 -13 28 0 36 -5 41 -25 4 -14 7 -18 8 -9 1 9 9
23 18 30 18 15 18 15 -2 -34 -3 -8 0 -14 7 -14 9 0 13 12 13 34 -2 32 4 40 18
27 3 -4 2 -16 -4 -27 -8 -14 -8 -17 0 -13 6 4 20 2 32 -5 17 -8 20 -8 14 1 -5
8 -3 11 5 8 7 -2 14 -12 16 -22 1 -10 6 -21 10 -24 4 -4 4 1 0 12 -5 14 -2 17
9 12 8 -3 15 -2 15 3 0 5 -9 11 -20 14 -11 3 -19 11 -17 19 2 7 2 10 0 6 -8
-14 -25 -8 -20 5 3 8 1 20 -4 28 -6 9 -8 3 -5 -19 2 -21 0 -31 -8 -29 -6 2
-10 11 -8 19 2 15 -46 44 -56 33 -3 -3 0 -5 7 -5 7 0 9 -5 5 -12 -5 -7 -11 -5
-21 7 -7 11 -13 14 -13 9z"/>
<path d="M2050 1889 c0 -5 5 -7 10 -4 6 3 10 8 10 11 0 2 -4 4 -10 4 -5 0 -10
-5 -10 -11z"/>
<path d="M2132 1884 c-15 -16 -36 -19 -27 -4 3 6 1 10 -5 10 -7 0 -9 -9 -5
-22 6 -22 5 -22 -9 -4 -14 18 -15 18 -13 -2 0 -11 4 -19 8 -16 4 2 13 -4 19
-13 10 -16 11 -16 6 -1 -5 18 30 51 46 42 4 -3 15 2 24 10 8 9 11 16 5 16 -5
0 -13 -5 -17 -11 -4 -7 -9 -8 -13 -1 -4 6 -11 4 -19 -4z"/>
<path d="M2211 1884 c12 -15 11 -16 -11 -9 -24 7 -24 7 -5 -8 11 -8 20 -23 20
-33 0 -12 8 -18 27 -18 14 -1 24 2 21 7 -3 5 -14 6 -25 4 -12 -4 -18 -1 -15 6
3 7 9 11 14 10 5 -1 10 8 10 19 2 20 1 20 -13 2 -14 -18 -15 -18 -9 2 4 15 0
24 -11 28 -15 6 -15 4 -3 -10z"/>
<path d="M2264 1874 c4 -37 13 -54 29 -53 8 0 8 2 -1 6 -10 4 -10 8 -1 19 7 8
9 17 5 21 -3 3 -6 1 -6 -5 0 -7 -5 -12 -11 -12 -6 0 -9 6 -6 13 3 8 1 20 -4
28 -6 10 -8 4 -5 -17z"/>
<path d="M2290 1889 c0 -5 5 -7 10 -4 6 3 10 8 10 11 0 2 -4 4 -10 4 -5 0 -10
-5 -10 -11z"/>
<path d="M4390 1888 c0 -11 12 -10 30 2 12 7 10 9 -8 7 -12 0 -22 -5 -22 -9z"/>
<path d="M713 1876 c3 -6 0 -19 -5 -28 -5 -10 -6 -18 -4 -18 3 0 12 13 20 28
13 25 13 29 0 29 -8 0 -13 -5 -11 -11z"/>
<path d="M767 1884 c-3 -3 -3 -13 1 -22 5 -14 3 -15 -10 -4 -13 10 -17 10 -22
-4 -8 -21 -8 -21 10 -28 14 -5 15 -4 4 9 -8 9 -8 15 -2 15 12 0 25 -18 28 -38
2 -8 6 -17 10 -20 4 -4 4 1 1 11 -4 10 -1 17 6 17 7 0 5 5 -4 10 -10 6 -15 20
-14 35 3 26 2 29 -8 19z"/>
<path d="M804 1882 c-13 -9 -14 -42 -1 -42 5 0 7 6 4 14 -3 7 0 19 6 25 12 12
8 14 -9 3z"/>
<path d="M828 1876 c0 -6 -2 -15 -2 -21 -1 -5 -5 -16 -9 -22 -5 -8 -4 -13 2
-13 6 0 11 5 11 10 0 6 12 3 28 -6 l27 -16 -27 22 c-31 24 -36 40 -13 40 8 0
15 4 15 8 0 13 -30 10 -32 -2z"/>
<path d="M872 1870 c-12 -10 -18 -21 -13 -24 5 -3 11 0 14 7 6 16 42 16 58 0
8 -8 8 -13 0 -17 -6 -4 -11 -3 -11 3 0 5 -9 9 -20 8 -11 -1 -20 -5 -20 -10 0
-4 8 -7 18 -5 9 2 16 -3 15 -9 -4 -19 7 -16 28 10 37 43 40 53 14 53 -13 0
-22 -3 -20 -7 3 -3 -6 -6 -20 -6 -14 0 -22 3 -19 8 8 13 1 10 -24 -11z m80
-12 c-7 -7 -12 -8 -12 -2 0 14 12 26 19 19 2 -3 -1 -11 -7 -17z"/>
<path d="M1007 1884 c-3 -3 -3 -13 1 -22 5 -15 4 -15 -11 -3 -17 13 -23 6 -18
-21 0 -5 -5 -8 -13 -8 -8 0 -18 -4 -21 -10 -4 -6 2 -7 17 -1 13 5 22 14 21 20
-3 12 10 15 20 4 4 -3 3 -11 -3 -17 -5 -7 -5 -17 2 -26 8 -12 9 -12 4 2 -6 20
27 43 45 32 8 -4 8 -1 0 13 -7 15 -7 23 2 32 9 10 8 11 -6 5 -9 -3 -16 -13
-15 -22 2 -8 -2 -17 -8 -19 -7 -2 -10 6 -9 22 3 26 2 29 -8 19z"/>
<path d="M1066 1873 c-6 -15 12 -69 20 -60 3 3 1 14 -5 25 -14 27 -14 32 4 32
8 0 15 4 15 8 0 14 -29 10 -34 -5z"/>
<path d="M1144 1877 c4 -14 2 -17 -12 -13 -25 8 -41 -6 -31 -29 7 -19 8 -19 8
3 1 12 6 22 11 22 6 0 10 -10 11 -22 l0 -23 9 21 c5 12 14 25 21 30 9 5 10 2
6 -9 -4 -10 -9 -23 -12 -30 -3 -8 0 -14 7 -14 8 0 13 12 13 29 0 15 -4 28 -9
27 -5 0 -13 5 -18 13 -7 10 -8 8 -4 -5z"/>
<path d="M1186 1878 c3 -5 10 -6 15 -3 13 9 11 12 -6 12 -8 0 -12 -4 -9 -9z"/>
<path d="M1231 1868 c7 -12 5 -19 -7 -26 -15 -8 -15 -10 1 -15 9 -4 13 -12 9
-18 -4 -8 -3 -9 5 -5 8 6 9 12 2 20 -16 19 -1 27 16 10 17 -17 49 -14 46 4 -2
7 1 12 5 12 16 0 22 -13 12 -24 -5 -7 -5 -17 2 -26 8 -12 9 -12 4 2 -6 20 27
43 45 32 8 -4 8 -1 0 13 -7 15 -7 23 2 32 9 10 8 11 -6 5 -9 -3 -16 -13 -15
-22 2 -8 -2 -17 -8 -19 -7 -2 -10 6 -9 22 2 14 -1 23 -5 20 -5 -3 -6 -13 -3
-23 6 -15 5 -15 -10 -3 -17 13 -23 6 -18 -21 0 -5 -6 -8 -14 -8 -19 0 -19 5 0
33 14 22 13 22 -24 22 -34 0 -38 -2 -30 -17z m46 -3 c-2 -5 -10 -10 -17 -10
-7 0 -15 5 -17 10 -2 6 6 11 17 11 11 0 19 -5 17 -11z"/>
<path d="M1386 1873 c-6 -15 12 -69 20 -60 3 3 1 14 -5 25 -14 27 -14 32 4 32
8 0 15 4 15 8 0 14 -29 10 -34 -5z"/>
<path d="M1464 1877 c4 -14 2 -17 -12 -13 -25 8 -41 -6 -31 -29 7 -19 8 -19 8
3 1 12 6 22 11 22 6 0 10 -10 11 -22 l0 -23 9 21 c5 12 14 25 21 30 9 5 10 2
6 -9 -4 -10 -9 -23 -12 -30 -3 -8 0 -14 7 -14 8 0 13 12 13 29 0 15 -4 28 -9
27 -5 0 -13 5 -18 13 -7 10 -8 8 -4 -5z"/>
<path d="M1506 1878 c3 -5 10 -6 15 -3 13 9 11 12 -6 12 -8 0 -12 -4 -9 -9z"/>
<path d="M1551 1868 c7 -12 5 -19 -7 -26 -15 -8 -15 -10 1 -15 9 -4 13 -12 9
-18 -4 -8 -3 -9 5 -5 9 6 9 11 1 21 -8 9 -8 15 0 20 5 3 10 2 10 -3 0 -15 25
-21 41 -10 11 8 10 9 -4 4 -12 -4 -17 -2 -14 6 2 7 9 12 15 11 5 -1 13 5 16
14 6 14 4 14 -19 -1 -25 -16 -45 -14 -45 4 0 5 6 7 14 4 8 -3 16 -2 19 3 3 4
-8 8 -23 8 -24 1 -27 -2 -19 -17z"/>
<path d="M1667 1884 c-3 -3 -3 -12 -1 -18 3 -7 -3 -19 -12 -27 -15 -13 -16
-11 -9 11 6 19 5 22 -5 14 -7 -7 -9 -21 -6 -32 6 -18 8 -18 37 9 17 16 28 33
24 39 -7 11 -19 13 -28 4z m23 -14 c0 -5 -2 -10 -4 -10 -3 0 -8 5 -11 10 -3 6
-1 10 4 10 6 0 11 -4 11 -10z"/>
<path d="M1736 1870 c6 -21 5 -23 -8 -12 -13 10 -17 10 -22 -4 -8 -21 3 -38
17 -26 19 15 58 -4 51 -25 -5 -14 -4 -15 4 -4 14 19 -6 51 -27 44 -13 -4 -13
-2 2 10 19 16 24 32 6 21 -6 -3 -16 0 -21 7 -6 10 -7 6 -2 -11z m-6 -24 c0 -3
-4 -8 -10 -11 -5 -3 -10 -1 -10 4 0 6 5 11 10 11 6 0 10 -2 10 -4z"/>
<path d="M1785 1864 c1 -15 10 -31 19 -36 9 -5 13 -14 10 -20 -5 -7 -2 -8 5
-4 9 6 8 13 -5 27 -18 20 -7 27 14 9 9 -7 9 -7 2 2 -5 7 -10 17 -10 23 1 5 10
-1 21 -14 11 -13 22 -21 26 -17 3 3 4 7 2 9 -2 1 -17 13 -33 27 -16 14 -26 20
-23 14 4 -7 -1 -18 -10 -25 -15 -12 -16 -12 -10 3 3 10 2 20 -3 23 -4 3 -7 -7
-5 -21z"/>
<path d="M2632 1870 c-12 -10 -18 -21 -13 -24 5 -3 11 0 14 7 6 16 42 16 58 0
8 -8 8 -13 0 -17 -6 -4 -11 -3 -11 3 0 5 -9 9 -20 8 -11 -1 -20 -5 -20 -10 0
-4 8 -7 18 -5 9 2 16 -3 15 -9 -4 -19 7 -16 28 10 37 43 40 53 14 53 -13 0
-22 -3 -20 -7 3 -3 -6 -6 -20 -6 -14 0 -22 3 -19 8 8 13 1 10 -24 -11z m80
-12 c-7 -7 -12 -8 -12 -2 0 14 12 26 19 19 2 -3 -1 -11 -7 -17z"/>
<path d="M2767 1884 c-3 -3 -3 -13 1 -22 5 -15 4 -15 -11 -3 -17 13 -23 6 -18
-21 0 -5 -5 -8 -13 -8 -8 0 -18 -4 -21 -10 -4 -6 2 -7 17 -1 13 5 22 14 21 20
-3 12 10 15 20 4 4 -3 3 -11 -3 -17 -5 -7 -5 -17 2 -26 8 -12 9 -12 4 2 -6 20
27 43 45 32 8 -4 8 -1 0 13 -7 15 -7 23 2 32 9 10 8 11 -6 5 -9 -3 -16 -13
-15 -22 2 -8 -2 -17 -8 -19 -7 -2 -10 6 -9 22 3 26 2 29 -8 19z"/>
<path d="M2826 1873 c-6 -15 12 -69 20 -60 3 3 1 14 -5 25 -14 27 -14 32 4 32
8 0 15 4 15 8 0 14 -29 10 -34 -5z"/>
<path d="M2900 1878 c0 -4 6 -8 14 -8 8 0 16 -6 19 -12 3 -7 5 -4 4 7 -1 13
-8 21 -19 21 -10 0 -18 -4 -18 -8z"/>
<path d="M2954 1874 c3 -8 -2 -20 -10 -29 -14 -14 -14 -15 3 -12 10 1 24 6 31
11 21 13 27 -3 7 -18 -15 -11 -16 -14 -4 -21 8 -5 11 -5 7 0 -4 4 0 13 8 20
17 12 29 70 14 60 -5 -3 -6 -13 -3 -23 6 -14 4 -15 -9 -4 -13 10 -17 10 -22
-4 -4 -9 -9 -14 -12 -11 -3 3 -1 14 5 24 8 15 7 20 -5 20 -8 0 -13 -6 -10 -13z"/>
<path d="M3044 1882 c-13 -9 -14 -42 -1 -42 5 0 7 6 4 14 -3 7 0 19 6 25 12
12 8 14 -9 3z"/>
<path d="M3068 1876 c0 -6 -2 -15 -2 -21 -1 -5 -5 -16 -9 -22 -5 -8 -4 -13 2
-13 6 0 11 5 11 10 0 6 12 3 28 -6 l27 -16 -27 22 c-31 24 -36 40 -13 40 8 0
15 4 15 8 0 13 -30 10 -32 -2z"/>
<path d="M3415 1880 c-8 -13 5 -13 25 0 13 8 13 10 -2 10 -9 0 -20 -4 -23 -10z"/>
<path d="M4634 1878 c-4 -7 -4 -10 1 -6 4 4 14 0 22 -10 13 -15 13 -15 3 6
-12 25 -16 27 -26 10z"/>
<path d="M2313 1854 c0 -17 2 -22 7 -13 5 6 6 18 3 26 -8 19 -10 16 -10 -13z"/>
<path d="M2869 1867 c-11 -8 -14 -18 -8 -32 8 -20 8 -20 8 1 1 11 6 25 13 32
15 15 8 15 -13 -1z"/>
<path d="M4415 1870 c-3 -5 -1 -10 4 -10 6 0 11 5 11 10 0 6 -2 10 -4 10 -3 0
-8 -4 -11 -10z"/>
<path d="M445 1859 c-4 -6 -5 -12 -2 -15 2 -3 7 2 10 11 7 17 1 20 -8 4z"/>
<path d="M470 1866 c0 -3 9 -10 20 -16 11 -6 20 -8 20 -6 0 3 -9 10 -20 16
-11 6 -20 8 -20 6z"/>
<path d="M1196 1854 c-22 -21 -20 -27 4 -12 11 7 20 16 20 20 0 12 -7 10 -24
-8z"/>
<path d="M1516 1854 c-22 -21 -20 -27 4 -12 11 7 20 16 20 20 0 12 -7 10 -24
-8z"/>
<path d="M4022 1850 c-7 -12 -8 -20 -2 -20 5 0 10 5 10 10 0 6 5 10 11 10 5 0
7 -4 4 -10 -3 -5 -1 -10 4 -10 13 0 13 3 5 24 -8 21 -17 20 -32 -4z"/>
<path d="M4312 1854 c-7 -8 -19 -11 -25 -8 -8 5 -8 3 1 -7 10 -11 15 -10 29 4
9 9 15 18 12 21 -2 2 -10 -2 -17 -10z"/>
<path d="M4393 1840 c0 -26 2 -27 13 -12 7 9 9 19 6 22 -4 3 -10 9 -13 13 -3
4 -6 -6 -6 -23z"/>
<path d="M4606 1855 c-3 -10 0 -12 11 -8 10 4 14 2 9 -5 -3 -6 -2 -13 4 -17 6
-4 7 -12 4 -18 -4 -8 -2 -7 7 1 12 11 12 14 0 21 -9 6 -10 10 -2 12 6 2 3 9
-8 16 -15 10 -20 9 -25 -2z"/>
<path d="M4678 1851 c-16 -18 -15 -20 1 -18 9 0 17 9 17 19 0 10 -1 18 -1 18
0 0 -8 -9 -17 -19z"/>
<path d="M2125 1852 c-3 -3 -5 -10 -5 -16 0 -6 4 -4 10 4 7 12 12 12 29 -4 19
-17 20 -43 2 -32 -4 3 -8 -1 -8 -9 0 -13 3 -12 19 1 14 13 15 20 7 31 -7 7 -9
17 -5 20 4 4 12 1 17 -7 9 -13 10 -13 7 0 -4 14 -61 24 -73 12z"/>
<path d="M2365 1850 c-3 -6 1 -7 10 -4 11 5 14 2 9 -12 -5 -15 -4 -16 4 -4 11
15 7 30 -8 30 -5 0 -12 -4 -15 -10z"/>
<path d="M2889 1858 c-10 -30 -3 -43 24 -45 19 0 25 2 16 7 -7 5 -16 7 -20 4
-4 -2 -10 3 -13 12 -5 12 -2 15 9 10 9 -3 13 -2 10 4 -5 9 -24 14 -26 8z"/>
<path d="M4207 1854 c-10 -11 -8 -24 4 -24 5 0 7 5 4 10 -3 6 -2 10 4 10 5 0
12 -5 14 -10 3 -6 4 -5 3 2 -3 14 -20 21 -29 12z"/>
<path d="M460 1840 c0 -6 7 -10 15 -10 8 0 15 2 15 4 0 2 -7 6 -15 10 -8 3
-15 1 -15 -4z"/>
<path d="M1885 1841 c3 -6 -3 -14 -12 -20 -16 -9 -16 -10 3 -8 20 1 33 37 13
37 -6 0 -8 -4 -4 -9z"/>
<path d="M3731 1834 c0 -11 3 -14 6 -6 3 7 2 16 -1 19 -3 4 -6 -2 -5 -13z"/>
<path d="M3876 1838 c2 -4 12 -6 22 -6 9 0 26 -3 37 -8 17 -7 18 -6 6 7 -14
14 -73 21 -65 7z"/>
<path d="M3956 1835 c4 -8 8 -15 10 -15 2 0 4 7 4 15 0 8 -4 15 -10 15 -5 0
-7 -7 -4 -15z"/>
<path d="M4102 1830 c-7 -11 -12 -25 -12 -32 0 -7 7 0 15 16 18 33 15 45 -3
16z"/>
<path d="M4422 1830 c-7 -11 -12 -25 -12 -32 0 -7 7 0 15 16 18 33 15 45 -3
16z"/>
<path d="M4730 1840 c0 -5 5 -10 11 -10 5 0 7 5 4 10 -3 6 -8 10 -11 10 -2 0
-4 -4 -4 -10z"/>
<path d="M546 1827 c-15 -11 -16 -16 -6 -22 9 -6 11 -4 5 5 -6 10 -3 12 13 8
12 -4 25 -1 29 4 3 6 1 8 -5 4 -5 -3 -12 -1 -14 4 -2 7 -10 6 -22 -3z"/>
<path d="M3428 1828 c-13 -10 -15 -17 -7 -28 9 -12 10 -12 5 4 -5 15 -2 17 14
13 11 -3 23 0 27 5 3 6 1 8 -5 4 -5 -3 -12 -1 -14 4 -2 7 -9 6 -20 -2z"/>
<path d="M3590 1831 c0 -6 4 -13 10 -16 6 -3 7 1 4 9 -7 18 -14 21 -14 7z"/>
<path d="M3803 1833 c-15 -5 -17 -23 -4 -23 5 0 11 7 15 15 3 8 4 15 3 14 -1
0 -8 -3 -14 -6z"/>
<path d="M3833 1829 c-9 -11 -6 -14 17 -14 16 -1 26 3 24 7 -3 5 -9 6 -14 3
-4 -3 -10 0 -12 6 -3 8 -7 7 -15 -2z"/>
<path d="M4140 1829 c-13 -9 -13 -10 1 -6 9 3 21 1 27 -5 6 -6 12 -6 17 3 5 8
4 10 -3 5 -7 -4 -12 -2 -12 3 0 14 -11 14 -30 0z"/>
<path d="M4461 1830 c-9 -5 -4 -7 13 -7 29 0 32 2 13 10 -8 3 -20 2 -26 -3z"/>
<path d="M4706 1823 c-6 -14 -5 -15 5 -6 7 7 10 15 7 18 -3 3 -9 -2 -12 -12z"/>
<path d="M430 1820 c0 -5 5 -10 10 -10 6 0 10 5 10 10 0 6 -4 10 -10 10 -5 0
-10 -4 -10 -10z"/>
<path d="M1666 1822 c-3 -5 1 -9 9 -9 8 0 15 4 15 9 0 4 -4 8 -9 8 -6 0 -12
-4 -15 -8z"/>
<path d="M2135 1819 c-4 -6 -5 -12 -2 -15 2 -3 7 2 10 11 7 17 1 20 -8 4z"/>
<path d="M3015 1821 c-3 -5 0 -13 6 -17 7 -4 9 -3 5 4 -3 5 0 13 6 15 9 4 10
6 1 6 -6 1 -14 -3 -18 -8z"/>
<path d="M3230 1820 c0 -5 5 -10 10 -10 6 0 10 5 10 10 0 6 -4 10 -10 10 -5 0
-10 -4 -10 -10z"/>
<path d="M3693 1823 c4 -3 1 -13 -6 -22 -11 -14 -10 -14 5 -2 16 12 16 31 1
31 -4 0 -3 -3 0 -7z"/>
<path d="M4270 1820 c0 -6 7 -10 15 -10 8 0 15 2 15 4 0 2 -7 6 -15 10 -8 3
-15 1 -15 -4z"/>
<path d="M4590 1820 c-13 -8 -12 -10 3 -10 9 0 17 5 17 10 0 12 -1 12 -20 0z"/>
<path d="M4770 1820 c0 -5 5 -10 11 -10 5 0 7 5 4 10 -3 6 -8 10 -11 10 -2 0
-4 -4 -4 -10z"/>
<path d="M1030 1811 c0 -5 5 -13 10 -16 6 -3 10 -2 10 4 0 5 -4 13 -10 16 -5
3 -10 2 -10 -4z"/>
<path d="M1350 1811 c0 -5 5 -13 10 -16 6 -3 10 -2 10 4 0 5 -4 13 -10 16 -5
3 -10 2 -10 -4z"/>
<path d="M1609 1803 c-13 -16 -12 -17 4 -4 9 7 17 15 17 17 0 8 -8 3 -21 -13z"/>
<path d="M1733 1805 c0 -7 6 -11 14 -8 7 3 13 6 13 8 0 2 -6 5 -13 8 -8 3 -14
-1 -14 -8z"/>
<path d="M2790 1811 c0 -5 5 -13 10 -16 6 -3 10 -2 10 4 0 5 -4 13 -10 16 -5
3 -10 2 -10 -4z"/>
<path d="M3495 1810 c-4 -6 -10 -8 -15 -5 -5 3 -11 1 -14 -4 -8 -13 22 -7 36
7 7 7 9 12 6 12 -4 0 -10 -5 -13 -10z"/>
<path d="M3533 1805 c0 -7 6 -11 14 -8 7 3 13 6 13 8 0 2 -6 5 -13 8 -8 3 -14
-1 -14 -8z"/>
<path d="M3995 1810 c-4 -6 -11 -7 -17 -4 -7 4 -8 2 -4 -5 6 -9 12 -9 24 1 10
7 19 14 21 15 2 2 -1 3 -7 3 -6 0 -14 -5 -17 -10z"/>
<path d="M3575 1800 c3 -5 8 -10 11 -10 2 0 4 5 4 10 0 6 -5 10 -11 10 -5 0
-7 -4 -4 -10z"/>
<path d="M3936 1798 c3 -5 10 -6 15 -3 13 9 11 12 -6 12 -8 0 -12 -4 -9 -9z"/>
<path d="M4116 1798 c3 -5 10 -6 15 -3 13 9 11 12 -6 12 -8 0 -12 -4 -9 -9z"/>
<path d="M4436 1798 c3 -5 10 -6 15 -3 13 9 11 12 -6 12 -8 0 -12 -4 -9 -9z"/>
<path d="M4470 1799 c0 -5 5 -7 10 -4 6 3 10 8 10 11 0 2 -4 4 -10 4 -5 0 -10
-5 -10 -11z"/>
<path d="M575 1781 c-3 -5 -2 -12 3 -15 5 -3 9 1 9 9 0 17 -3 19 -12 6z"/>
<path d="M1175 1781 c-3 -5 -2 -12 3 -15 5 -3 9 1 9 9 0 17 -3 19 -12 6z"/>
<path d="M1495 1781 c-3 -5 -2 -12 3 -15 5 -3 9 1 9 9 0 17 -3 19 -12 6z"/>
<path d="M2455 1781 c-3 -5 -2 -12 3 -15 5 -3 9 1 9 9 0 17 -3 19 -12 6z"/>
<path d="M3855 1781 c-3 -5 -2 -12 3 -15 5 -3 9 1 9 9 0 17 -3 19 -12 6z"/>
<path d="M3570 1761 c-24 -6 -26 -10 -25 -56 2 -71 0 -75 -41 -62 -126 39
-204 -172 -101 -273 29 -28 34 -29 114 -28 47 2 87 6 90 11 10 17 8 390 -2
402 -6 6 -21 9 -35 6z m-38 -189 c6 -6 11 -40 13 -77 2 -59 0 -68 -22 -85 -19
-15 -30 -17 -52 -9 -43 15 -51 41 -42 137 3 39 74 63 103 34z"/>
<path d="M3974 1762 c-21 -3 -22 -7 -22 -212 l-1 -210 42 5 c23 2 58 0 77 -4
43 -10 99 17 118 57 37 76 19 192 -35 227 -34 23 -77 29 -103 15 -29 -16 -32
-10 -32 54 0 59 -10 74 -44 68z m150 -192 c12 -12 20 -93 12 -124 -3 -14 -17
-33 -31 -42 -22 -14 -26 -14 -55 2 -16 10 -30 26 -31 36 -4 98 -1 112 21 130
23 19 63 18 84 -2z"/>
<path d="M480 1741 c-14 -5 -16 -34 -15 -201 l0 -195 90 -1 c96 -1 134 10 166
50 25 31 20 109 -9 136 l-22 21 20 26 c32 41 27 89 -14 128 -27 26 -43 32 -73
32 -22 0 -44 3 -50 6 -7 4 -14 3 -17 -2 -4 -5 -18 -6 -34 -2 -15 5 -34 5 -42
2z m171 -82 c29 -45 -2 -80 -74 -82 l-42 -1 0 53 0 53 53 -4 c31 -3 58 -11 63
-19z m2 -157 c9 -8 17 -28 17 -43 0 -39 -34 -60 -91 -56 l-44 2 0 58 0 58 50
-2 c27 -1 58 -9 68 -17z"/>
<path d="M3019 1739 c-7 -4 -16 -6 -20 -3 -12 7 -79 -64 -79 -85 0 -73 31
-105 136 -143 64 -23 74 -31 74 -66 0 -24 -44 -50 -78 -47 -34 4 -71 28 -74
49 -2 16 -10 21 -35 22 -28 1 -33 -3 -33 -21 0 -28 33 -71 70 -90 66 -34 181
-10 210 45 34 64 -28 156 -115 172 -42 7 -80 35 -83 60 -4 32 16 48 61 50 39
1 65 -14 77 -48 10 -26 70 -32 70 -7 0 34 -33 82 -67 98 -40 19 -95 26 -114
14z"/>
<path d="M3270 1740 c-28 -7 -38 -34 -20 -55 30 -36 80 0 57 41 -9 15 -18 19
-37 14z"/>
<path d="M1419 1688 c-1 -13 -1 -29 0 -35 1 -8 -9 -13 -22 -13 -16 0 -26 -7
-30 -19 -6 -25 3 -37 28 -36 19 0 20 -7 22 -98 1 -72 6 -105 18 -123 9 -14 19
-23 22 -21 3 3 16 2 29 -3 14 -6 26 -6 29 1 4 5 10 7 14 5 4 -3 8 8 9 24 1 25
-3 30 -23 30 -13 0 -24 7 -27 18 -3 14 -3 89 1 160 1 7 7 12 14 11 27 -3 35 2
35 26 0 20 -6 25 -24 25 -24 0 -29 11 -26 53 1 13 -6 17 -33 17 -29 0 -35 -4
-36 -22z"/>
<path d="M1868 1678 c-2 -25 -8 -34 -24 -36 -14 -2 -24 -12 -26 -27 -4 -19 0
-24 24 -29 l28 -5 0 -98 c1 -63 5 -103 13 -113 19 -23 49 -36 80 -32 23 3 27
8 27 34 0 25 -3 29 -20 25 -27 -7 -30 0 -31 85 -1 102 0 110 10 104 18 -11 41
6 41 30 0 19 -5 24 -24 24 -21 0 -25 6 -28 33 -3 28 -7 32 -35 35 -29 3 -32 1
-35 -30z"/>
<path d="M873 1639 c-64 -19 -101 -100 -87 -190 11 -70 79 -120 151 -109 74
11 117 70 115 158 -2 106 -82 169 -179 141z m78 -62 c65 -50 34 -193 -39 -181
-44 8 -63 40 -61 101 2 44 7 58 27 74 28 22 50 24 73 6z"/>
<path d="M1184 1641 c-23 -6 -94 -61 -80 -61 5 0 3 -7 -4 -16 -18 -21 -17
-133 1 -145 8 -5 10 -9 5 -9 -15 0 37 -51 64 -62 46 -19 113 -6 148 28 38 38
52 175 20 195 -7 5 -9 9 -4 9 19 0 -38 50 -68 59 -34 10 -49 10 -82 2z m88
-81 c27 -34 24 -110 -6 -143 -13 -14 -32 -24 -42 -22 -11 2 -24 4 -29 4 -18 2
-45 57 -45 91 0 35 23 86 42 93 26 9 62 -1 80 -23z"/>
<path d="M1660 1643 c-64 -18 -96 -63 -79 -111 10 -30 40 -47 121 -72 40 -12
51 -28 32 -47 -30 -30 -104 -14 -104 23 0 9 -10 14 -29 14 -38 0 -41 -7 -25
-47 13 -31 44 -56 74 -59 8 -1 20 -3 25 -4 31 -7 73 3 96 23 72 61 35 136 -79
161 -43 10 -60 41 -31 56 28 15 66 5 74 -20 5 -15 15 -20 40 -20 33 0 33 0 24
32 -9 34 -42 66 -69 69 -8 1 -24 3 -35 4 -11 1 -27 0 -35 -2z"/>
<path d="M2118 1639 c-6 -4 -28 -4 -49 -2 l-39 6 0 -150 0 -149 33 -2 33 -2
-1 92 c-1 51 2 103 6 115 8 21 42 39 65 35 15 -3 24 21 17 47 -5 20 -39 26
-65 10z"/>
<path d="M2273 1639 c-39 -11 -89 -67 -73 -83 18 -18 59 -15 65 5 3 10 20 21
37 25 26 5 35 2 50 -16 24 -29 15 -40 -32 -40 -129 0 -179 -129 -72 -183 23
-11 37 -12 75 -2 28 7 50 8 55 3 6 -6 20 -8 33 -6 22 3 24 8 22 48 -1 25 -2
79 -4 122 -1 42 -5 81 -8 86 -11 18 -76 52 -96 51 -11 0 -34 -5 -52 -10z m93
-182 c5 -38 -58 -72 -92 -49 -25 17 -23 42 4 57 36 20 84 16 88 -8z"/>
<path d="M2508 1643 c-16 -4 -18 -22 -15 -206 l2 -202 30 0 c30 0 30 1 31 55
1 30 2 58 3 62 1 4 15 1 33 -6 53 -23 117 7 140 64 6 14 11 45 13 70 4 85 -25
141 -81 160 -29 10 -37 9 -87 -5 -15 -4 -33 -3 -40 2 -6 5 -20 8 -29 6z m143
-71 c43 -36 29 -170 -19 -173 -61 -4 -77 15 -76 93 1 35 2 66 3 70 1 6 45 25
62 27 4 1 17 -7 30 -17z"/>
<path d="M3734 1630 c-46 -23 -73 -63 -78 -117 -6 -76 28 -142 84 -165 31 -13
80 -16 87 -6 2 5 12 8 22 8 16 0 61 38 61 53 0 3 -9 11 -21 17 -16 9 -24 8
-37 -4 -42 -37 -122 -14 -122 35 0 17 7 19 68 18 122 -2 114 -5 111 49 -5 102
-88 155 -175 112z m72 -46 c12 -3 27 -17 33 -30 11 -24 10 -24 -49 -24 -64 0
-72 8 -40 40 22 22 25 22 56 14z"/>
<path d="M4315 1638 c-39 -21 -82 -87 -58 -89 4 0 19 -2 31 -5 17 -3 25 1 29
15 6 23 54 37 80 22 10 -5 19 -19 20 -30 2 -18 -4 -21 -39 -21 -52 0 -105 -26
-122 -59 -40 -79 47 -161 133 -125 17 7 33 10 35 6 3 -5 20 -9 39 -10 35 -2
35 -2 28 30 -4 18 -6 65 -5 103 3 86 -9 128 -42 150 -31 20 -102 27 -129 13z
m103 -183 c-1 -14 -10 -33 -19 -41 -22 -20 -69 -14 -83 9 -15 25 24 57 70 57
30 0 34 -3 32 -25z"/>
<path d="M4657 1644 c-4 -4 -31 -8 -59 -8 l-53 -1 0 -130 c-1 -71 1 -138 3
-147 5 -20 47 -25 57 -7 4 5 6 52 6 104 -1 104 9 125 59 125 26 0 28 3 27 32
-2 31 -23 48 -40 32z"/>
<path d="M3245 1493 l0 -148 33 -2 32 -1 0 149 0 149 -33 0 -33 0 1 -147z"/>
</g>
</svg>
