<?xml version="1.0" standalone="no"?>
<!DOCTYPE svg PUBLIC "-//W3C//DTD SVG 20010904//EN"
 "http://www.w3.org/TR/2001/REC-SVG-20010904/DTD/svg10.dtd">
<svg version="1.0" xmlns="http://www.w3.org/2000/svg"
 width="1280.000000pt" height="1280.000000pt" viewBox="0 0 1280.000000 1280.000000"
 preserveAspectRatio="xMidYMid meet">
<metadata>
Created by potrace 1.11, written by Peter Selinger 2001-2013
</metadata>
<g transform="translate(0.000000,1280.000000) scale(0.100000,-0.100000)"
fill="#000000" stroke="none">
<path d="M6198 12785 c-2 -1 -66 -5 -143 -9 -77 -4 -158 -8 -181 -10 -119 -11
-319 -34 -364 -41 -14 -2 -68 -11 -120 -20 -130 -21 -250 -42 -275 -49 -5 -2
-28 -6 -50 -10 -76 -15 -355 -86 -457 -117 -57 -17 -125 -37 -153 -46 -57 -17
-160 -51 -190 -63 -33 -14 -59 -23 -71 -25 -23 -5 -257 -102 -394 -162 -80
-35 -228 -107 -330 -160 -102 -53 -195 -101 -207 -107 -13 -6 -23 -14 -23 -18
0 -5 -4 -8 -10 -8 -43 0 -628 -393 -802 -538 -12 -11 -66 -55 -118 -98 -52
-43 -97 -81 -100 -84 -3 -3 -36 -32 -74 -65 -106 -92 -401 -388 -520 -524
-295 -336 -529 -663 -755 -1055 -159 -276 -331 -638 -425 -896 -15 -41 -36
-95 -46 -120 -36 -89 -174 -548 -194 -645 -3 -11 -12 -51 -21 -90 -9 -38 -19
-81 -21 -95 -2 -14 -6 -36 -9 -50 -10 -45 -26 -124 -31 -160 -3 -19 -7 -46
-10 -60 -4 -24 -21 -127 -29 -180 -14 -91 -41 -365 -50 -512 -13 -201 -6 -789
10 -878 3 -14 7 -59 10 -100 3 -41 7 -86 10 -100 4 -25 15 -113 20 -160 1 -14
5 -38 8 -55 4 -16 9 -50 13 -75 5 -37 26 -156 50 -280 3 -14 7 -34 9 -45 2
-11 8 -40 14 -65 7 -25 14 -56 17 -70 8 -40 63 -249 84 -320 11 -36 20 -68 20
-72 2 -12 99 -301 109 -323 4 -11 18 -47 31 -80 241 -647 605 -1272 1055
-1814 44 -53 84 -101 90 -107 5 -6 39 -45 75 -85 128 -145 429 -440 570 -558
36 -30 70 -60 75 -66 6 -6 33 -28 60 -50 28 -22 52 -43 55 -46 11 -14 323
-242 425 -311 349 -237 813 -482 1213 -639 256 -101 719 -246 874 -274 14 -3
53 -12 85 -20 32 -8 74 -17 93 -21 19 -3 44 -8 55 -10 11 -2 43 -8 70 -14 28
-5 61 -11 74 -14 12 -3 44 -8 69 -11 26 -3 54 -7 62 -9 16 -5 97 -17 145 -21
17 -2 44 -5 60 -8 26 -5 87 -11 205 -23 271 -25 854 -26 1095 0 22 2 76 7 120
11 44 4 88 9 99 11 10 2 39 6 65 9 25 3 66 8 91 11 48 6 348 59 390 69 14 3
57 12 95 20 67 14 245 60 405 105 257 72 943 339 958 373 2 4 9 7 16 7 14 0
116 52 311 158 421 229 897 573 1248 902 144 135 356 351 442 450 302 348 517
646 747 1035 174 295 372 726 498 1085 71 202 175 553 185 625 1 11 3 20 4 20
2 0 4 7 6 15 1 8 14 71 29 140 34 167 39 194 51 284 3 21 7 41 9 45 2 3 7 31
11 61 3 30 7 66 9 80 41 304 51 468 51 840 0 369 -14 600 -50 840 -5 34 -13
95 -21 150 -22 167 -117 597 -169 770 -60 198 -160 492 -184 545 -6 11 -27 65
-49 120 -86 218 -273 597 -412 830 -119 201 -393 606 -429 635 -4 3 -20 23
-36 46 -17 23 -50 65 -75 94 -25 30 -74 88 -109 129 -165 197 -384 420 -606
616 -49 44 -92 83 -95 86 -18 19 -324 259 -413 323 -111 79 -343 233 -387 256
-14 7 -27 16 -30 19 -22 28 -501 279 -705 370 -66 29 -134 59 -151 67 -71 32
-279 108 -434 160 -304 102 -567 170 -890 229 -8 1 -35 6 -60 10 -25 4 -52 9
-61 10 -36 7 -96 16 -134 20 -22 3 -51 7 -65 10 -14 3 -72 9 -130 15 -103 10
-128 12 -297 25 -77 7 -579 15 -585 10z"/>
</g>
</svg>
